<?xml version="1.0" encoding="UTF-8"?>
<svg width="1095px" height="1095px" viewBox="0 0 1095 1095" version="1.1" xmlns="http://www.w3.org/2000/svg" xmlns:xlink="http://www.w3.org/1999/xlink">
    <!-- Generator: Sketch 45.2 (43514) - http://www.bohemiancoding.com/sketch -->
    <title>Test 2</title>
    <desc>Created with Sketch.</desc>
    <defs>
        <linearGradient x1="32.8597309%" y1="7.99378834%" x2="42.5509286%" y2="96.2869985%" id="linearGradient-1">
            <stop stop-color="#328CDB" offset="0%"></stop>
            <stop stop-color="#8318E4" offset="48.2601244%"></stop>
            <stop stop-color="#F02779" offset="100%"></stop>
        </linearGradient>
        <path d="M700.522296,380.544188 C629.365877,431.40626 574.196663,503.200964 544.011462,586.93149 L544.011462,586.93149 C573.299328,543.998959 622.608156,515.813719 678.5,515.813719 C768.349152,515.813719 841.186281,588.650848 841.186281,678.5 C841.186281,768.349152 768.349152,841.186281 678.5,841.186281 C572.378955,841.186281 486.35085,927.214386 486.35085,1033.33543 C486.35085,1139.45648 572.378955,1225.48458 678.5,1225.48458 C980.591243,1225.48458 1225.48458,980.591243 1225.48458,678.5 C1225.48458,542.934848 1176.16756,418.888303 1094.49577,323.322617 C1072.31196,315.684716 1049.31572,309.792229 1025.67112,305.809218 C1049.31572,309.792227 1072.31196,315.684711 1094.49576,323.322606 C994.171426,205.931234 845.026085,131.515419 678.5,131.515419 C376.408757,131.515419 131.515419,376.408757 131.515419,678.5 C131.515419,784.621045 217.543523,870.64915 323.664569,870.64915 C429.785614,870.64915 515.813719,784.621045 515.813719,678.5 C515.813719,644.542692 526.217504,613.015318 544.011462,586.93149 L544.011462,586.93149 C574.196663,503.200964 629.365877,431.40626 700.522296,380.544188 Z" id="path-2"></path>
        <linearGradient x1="90.841189%" y1="2.98951038%" x2="7.94382852%" y2="74.5504936%" id="linearGradient-4">
            <stop stop-color="#DAE338" offset="0%"></stop>
            <stop stop-color="#4CCDDD" offset="100%"></stop>
        </linearGradient>
    </defs>
    <g id="Page-1" stroke="none" stroke-width="1" fill="none" fill-rule="evenodd">
        <g id="Artboard" transform="translate(-54.000000, -375.000000)">
            <g id="Landing" transform="translate(-77.000000, 0.000000)">
                <g id="Round" transform="translate(0.000000, 244.000000)">
                    <mask id="mask-3" fill="white">
                        <use xlink:href="#path-2"></use>
                    </mask>
                    <use id="Combined-Shape" fill="url(#linearGradient-1)" fill-rule="evenodd" opacity="0.951370018" xlink:href="#path-2"></use>
                    <path d="M544.011462,586.93149 C604.381864,419.470437 764.68832,299.752675 952.956357,299.752675 C1002.51086,299.752675 1050.12817,308.046821 1094.49577,323.322617 C1176.16756,418.888303 1225.48458,542.934848 1225.48458,678.5 C1225.48458,980.591243 980.591243,1225.48458 678.5,1225.48458 C572.378955,1225.48458 486.35085,1139.45648 486.35085,1033.33543 C486.35085,927.214386 572.378955,841.186281 678.5,841.186281 C768.349152,841.186281 841.186281,768.349152 841.186281,678.5 C841.186281,588.650848 768.349152,515.813719 678.5,515.813719 C622.608156,515.813719 573.299328,543.998959 544.011462,586.93149 L544.011462,586.93149 Z" id="Combined-Shape" fill="url(#linearGradient-1)" fill-rule="evenodd" mask="url(#mask-3)"></path>
                    <path d="M515.813719,678.5 C515.813719,784.621045 429.785614,870.64915 323.664569,870.64915 C217.543523,870.64915 131.515419,784.621045 131.515419,678.5 C131.515419,376.408757 376.408757,131.515419 678.5,131.515419 C845.026085,131.515419 994.171426,205.931234 1094.49576,323.322606 C1050.12817,308.046821 1002.51086,299.752675 952.956357,299.752675 C764.68832,299.752675 604.381864,419.470437 544.011462,586.93149 C526.217504,613.015318 515.813719,644.542692 515.813719,678.5 Z" id="Combined-Shape" fill="url(#linearGradient-4)" fill-rule="nonzero" mask="url(#mask-3)"></path>
                </g>
            </g>
        </g>
    </g>
</svg>