<?xml version="1.0" encoding="UTF-8"?>
<svg width="140px" height="140px" viewBox="0 0 140 140" version="1.1" xmlns="http://www.w3.org/2000/svg" xmlns:xlink="http://www.w3.org/1999/xlink">
    <!-- Generator: Sketch 45.2 (43514) - http://www.bohemiancoding.com/sketch -->
    <title>Combined Shape</title>
    <desc>Created with Sketch.</desc>
    <defs></defs>
    <g id="Page-1" stroke="none" stroke-width="1" fill="none" fill-rule="evenodd">
        <path d="M70,140 C31.3400675,140 0,108.659932 0,70 C0,31.3400675 31.3400675,0 70,0 C108.659932,0 140,31.3400675 140,70 C140,108.659932 108.659932,140 70,140 Z M61.7952553,86.3810259 L50.6892698,75.2750404 C47.5433925,72.1291631 42.4429175,72.1291631 39.2970402,75.2750404 C36.1511628,78.4209178 36.1511628,83.5213927 39.2970402,86.6672701 L63.9814519,111.351682 C65.5909779,112.961208 67.7121501,113.747252 69.8214212,113.709813 C71.9306923,113.747252 74.0518646,112.961208 75.6613906,111.351682 L100.345802,86.6672701 C103.49168,83.5213927 103.49168,78.4209178 100.345802,75.2750404 C97.1999249,72.1291631 92.09945,72.1291631 88.9535727,75.2750404 L77.9063009,86.3223122 L77.9063009,34.5784518 C77.9063009,30.1295094 74.2997205,26.5229289 69.8507781,26.5229289 C65.4018357,26.5229289 61.7952553,30.1295094 61.7952553,34.5784518 L61.7952553,86.3810259 Z" id="Combined-Shape" fill="#6D6D6D"></path>
    </g>
</svg>