<?xml version="1.0" encoding="UTF-8"?>
<svg width="44px" height="44px" viewBox="0 0 44 44" version="1.1" xmlns="http://www.w3.org/2000/svg" xmlns:xlink="http://www.w3.org/1999/xlink">
    <!-- Generator: Sketch 45.2 (43514) - http://www.bohemiancoding.com/sketch -->
    <title>Combined Shape</title>
    <desc>Created with Sketch.</desc>
    <defs></defs>
    <g id="Page-1" stroke="none" stroke-width="1" fill="none" fill-rule="evenodd">
        <g id="Artboard" transform="translate(-556.000000, -3662.000000)" fill="#E93270">
            <path d="M578,3706.01999 C565.838694,3706.01999 555.980008,3696.16131 555.980008,3684 C555.980008,3671.83869 565.838694,3661.98001 578,3661.98001 C590.161306,3661.98001 600.019992,3671.83869 600.019992,3684 C600.019992,3696.16131 590.161306,3706.01999 578,3706.01999 Z M567.989215,3685.64001 L567.989215,3685.64001 L567.988382,3685.64047 L567.994186,3685.64548 C568.316841,3685.99986 568.681814,3686.31503 569.081117,3686.58301 L577.287781,3693.66169 L577.292172,3693.66174 C577.485356,3693.86621 577.759056,3693.99381 578.062557,3693.99381 C578.371429,3693.99381 578.649435,3693.86166 578.843123,3693.65082 L587.48899,3686.40158 C587.66108,3686.27246 587.825927,3686.1342 587.982811,3685.98753 L588.396737,3685.64047 L588.360421,3685.60106 C589.296952,3684.55152 589.86616,3683.16714 589.86616,3681.64982 C589.86616,3678.37096 587.208122,3675.71293 583.929266,3675.71293 C581.131025,3675.71293 578.784942,3677.64884 578.157286,3680.25441 C577.529629,3677.64884 575.183546,3675.71293 572.385305,3675.71293 C569.106449,3675.71293 566.448411,3678.37096 566.448411,3681.64982 C566.448411,3683.18599 567.031846,3684.58588 567.989215,3685.64001 Z" id="Combined-Shape"></path>
        </g>
    </g>
</svg>